Coordinates
version=1
nRows=8
nColumns=40
inDegrees=yes

Units are S.I. units (second, meters, Newtons, ...)
Angles are in degrees.

endheader
time	pelvis_tilt	pelvis_list	pelvis_rotation	pelvis_tx	pelvis_ty	pelvis_tz	hip_flexion_r	hip_adduction_r	hip_rotation_r	knee_angle_r	knee_angle_r_beta	ankle_angle_r	subtalar_angle_r	mtp_angle_r	hip_flexion_l	hip_adduction_l	hip_rotation_l	knee_angle_l	knee_angle_l_beta	ankle_angle_l	subtalar_angle_l	mtp_angle_l	lumbar_extension	lumbar_bending	lumbar_rotation	arm_flex_r	arm_add_r	arm_rot_r	elbow_flex_r	pro_sup_r	wrist_flex_r	wrist_dev_r	arm_flex_l	arm_add_l	arm_rot_l	elbow_flex_l	pro_sup_l	wrist_flex_l	wrist_dev_l
      0.30000000	     -0.59951353	     -0.61067379	      4.03933872	     -0.32220905	      0.89230655	      1.52941088	      3.00790691	     -1.99188318	    -13.62950512	    -21.87043933	     -0.38171118	     12.96632425	     -6.63694244	      6.56075864	     28.40149365	      4.52627237	      9.19432469	    -60.73391072	     -1.06000671	      6.44424049	     18.92787494	     21.20373882	     -5.57648121	      1.36067222	     -0.55200084	     -4.39910706	    -10.87141824	    -16.50730465	     47.59043390	     89.95437384	      0.00000000	      0.00000000	    -10.52369892	      8.14927149	     18.81469971	     35.35433563	     89.95437384	      0.00000000	      0.00000000
      0.31000000	     -0.62114839	     -0.53673374	      3.99633416	     -0.31055023	      0.89155791	      1.53010854	      1.88533542	     -1.93210364	    -13.83828271	    -21.32097796	     -0.37212127	     13.34977354	     -6.37352088	      6.30182647	     29.21515903	      4.54020078	      9.66052469	    -58.48403692	     -1.02073900	      7.05156053	     18.94026617	     21.26608273	     -5.65484779	      1.19302052	     -0.21032008	     -4.35491980	    -11.02422557	    -16.14867459	     49.45077520	     89.95437384	      0.00000000	      0.00000000	    -10.68974398	      8.14795946	     19.23582651	     33.62874538	     89.95437384	      0.00000000	      0.00000000
      0.32000000	     -0.44063276	     -0.43797677	      3.87126566	     -0.29877762	      0.89109715	      1.53069383	      0.56214658	     -1.91668014	    -14.00825917	    -20.81402659	     -0.36327329	     13.47013185	     -5.99416513	      5.97773300	     29.64772832	      4.54766800	     10.14847873	    -55.89498678	     -0.97555155	      7.67796626	     18.90757051	     21.37168270	     -5.98357169	      1.01534186	      0.21229751	     -4.22983891	    -11.16820635	    -15.91623108	     51.19937182	     89.95437384	      0.00000000	      0.00000000	    -10.71293646	      8.09576953	     19.78845687	     31.82343989	     89.95437384	      0.00000000	      0.00000000
      0.33000000	     -0.17490208	     -0.27969162	      3.78072242	     -0.28694250	      0.89063835	      1.53120384	     -0.91051093	     -1.97454217	    -14.33418537	    -20.17205198	     -0.35206872	     13.70286897	     -5.42041671	      5.37259640	     29.83203209	      4.53272843	     10.67282872	    -53.07090034	     -0.92626195	      7.90064049	     18.87191614	     21.70670644	     -6.41402101	      0.74525508	      0.53403274	     -4.00794780	    -11.26944162	    -15.63779027	     52.78806585	     89.95437384	      0.00000000	      0.00000000	    -10.79440130	      8.05107929	     20.54515408	     30.25385494	     89.95437384	      0.00000000	      0.00000000
      0.34000000	     -0.20986035	     -0.20758490	      3.72223066	     -0.27518057	      0.88958888	      1.53143132	     -1.93937855	     -1.99130092	    -14.60916180	    -19.80279808	     -0.34562403	     13.85913197	     -5.08274076	      4.87568113	     30.39371317	      4.47658933	     10.99934404	    -50.20477357	     -0.87623860	      7.86874016	     18.77535600	     21.72214788	     -6.48281038	      0.57690876	      0.78092346	     -3.86590498	    -11.47399812	    -15.23052907	     54.39506701	     89.95437384	      0.00000000	      0.00000000	    -10.86985489	      8.05289067	     21.07779457	     28.52772255	     89.95437384	      0.00000000	      0.00000000
      0.35000000	     -0.29678518	     -0.15801728	      3.70539180	     -0.26366241	      0.88839374	      1.53149171	     -2.91347430	     -1.97528633	    -14.89068191	    -19.35711732	     -0.33784543	     14.15798952	     -4.78885553	      4.49146821	     30.92709401	      4.41596591	     11.25395303	    -47.20393356	     -0.82386406	      7.63848075	     18.58730455	     21.60903436	     -6.52696283	      0.41766163	      1.00092410	     -3.71294366	    -11.69579466	    -14.82592858	     55.90830517	     89.95437384	      0.00000000	      0.00000000	    -10.89518437	      8.05124373	     21.66443328	     26.95614450	     89.95437384	      0.00000000	      0.00000000
      0.36000000	     -0.61766992	     -0.35653632	      3.62307163	     -0.25233927	      0.88669925	      1.53174532	     -3.48159371	     -1.73548823	    -15.19005982	    -19.14199485	     -0.33409084	     14.34578833	     -4.64213293	      4.29511429	     31.76879536	      4.64255957	     11.48858871	    -44.26154926	     -0.77250977	      7.35687331	     18.16369787	     21.41848351	     -6.32200769	      0.49103446	      1.19286539	     -3.48704145	    -11.91584445	    -14.39150879	     57.33062286	     89.95437384	      0.00000000	      0.00000000	    -11.21875035	      8.07444483	     21.90162559	     25.82413151	     89.95437384	      0.00000000	      0.00000000
      0.37000000	     -0.38848424	      0.01452649	      3.61097937	     -0.24041022	      0.88620956	      1.53123066	     -4.82137220	     -2.16446400	    -15.60053941	    -18.82325182	     -0.32852772	     14.34151524	     -3.94394132	      3.74980906	     31.53800486	      4.26417699	     12.10767818	    -40.79764561	     -0.71205324	      6.69022017	     17.79120300	     20.86229702	     -6.73189905	      0.01064247	      1.33899218	     -3.32196852	    -11.98919296	    -14.26806485	     58.70299593	     89.95437384	      0.00000000	      0.00000000	    -10.85392201	      8.00189309	     23.18735182	     23.75038557	     89.95437384	      0.00000000	      0.00000000
